<?xml version="1.0" encoding="utf-8"?>
<!-- Generator: Adobe Illustrator 16.0.0, SVG Export Plug-In . SVG Version: 6.00 Build 0)  -->
<!DOCTYPE svg PUBLIC "-//W3C//DTD SVG 1.1//EN" "http://www.w3.org/Graphics/SVG/1.1/DTD/svg11.dtd">
<svg version="1.1" id="Capa_1" xmlns="http://www.w3.org/2000/svg" xmlns:xlink="http://www.w3.org/1999/xlink" x="0px" y="0px"
	 width="200px" height="191px" viewBox="0 0 200 191" enable-background="new 0 0 200 191" xml:space="preserve">
<g>
	<g>
		<path fill="#FFFFFF" d="M3.782,3.621h192.569v184.214H3.782V3.621z M196.352,0H3.782H0v3.621V187.83v3.619h3.782h192.569h3.78
			v-3.619V3.621V0H196.352z"/>
		<g>
			<path fill="#FFFFFF" d="M47.793,107.704l14.931-50.72c0.542-1.7,1.07-2.85,1.614-3.441c0.542-0.6,1.265-1.008,2.18-1.232
				l5.737-1.445c0.055,0,0.173-0.013,0.362-0.045c0.193-0.025,0.417-0.042,0.687-0.042c0.436,0,0.768,0.114,1.01,0.341
				c0.244,0.229,0.369,0.566,0.369,1.02c0,0.283-0.014,0.514-0.037,0.682c-0.037,0.168-0.076,0.336-0.125,0.507L63.29,90.919
				c8.341-13.631,15.878-23.76,21.931-30.382c6.055-6.617,11.12-9.926,15.216-9.926c2.53,0,4.682,0.934,6.456,2.8
				c1.779,1.867,2.672,4.159,2.672,6.874c0,1.528-0.314,3.536-0.937,6.025c-0.61,2.49-1.729,6.227-3.342,11.203
				c-0.32,0.906-0.754,2.178-1.291,3.818c-3.653,10.867-5.479,17.483-5.479,19.858c0,0.733,0.309,1.399,0.926,1.996
				c0.618,0.595,1.357,0.891,2.216,0.891c2.418,0,6.258-3.295,11.85-9.593c3.74-4.203,11.639-14.738,17.379-23.299
				c0.773-1.15,1.182-1.797,1.813-2.812c0.353-0.575,0.972-0.026,1.138,0.36c0.182,0.406,0.145,0.878-0.059,1.486
				c-0.321,0.993-3.785,7.76-7.787,13.703c-5.143,7.639-8.563,12.372-17.613,21.631c-4.05,4.146-8.009,5.994-11.229,5.994
				c-2.797,0-5.139-1.153-6.993-3.188c-1.853-2.033-2.782-4.614-2.782-7.729c0-2.261,1.525-8.119,4.578-17.574
				c1.177-3.568,2.085-6.4,2.729-8.497c1.439-4.638,2.461-8.017,3.047-10.145c0.593-2.124,0.888-3.491,0.888-4.115
				c0-0.681-0.268-1.276-0.812-1.788c-0.535-0.507-1.15-0.762-1.852-0.762c-1.988,0-5.038,2.209-9.156,6.623
				c-4.112,4.414-9.165,10.526-14.486,18.336c-2.583,3.908-4.842,7.561-6.776,10.953c-1.934,3.396-3.52,6.595-4.758,9.593
				c-0.272,0.568-0.59,1.388-0.963,2.464c-0.862,2.438-2.381,4.293-4.103,4.635l-6.062,1.193h-0.726
				c-0.486,0-0.848-0.128-1.088-0.387c-0.244-0.249-0.438-0.67-0.438-1.184c0-0.568,0.053-0.94,0.125-1.26
				C47.59,108.408,47.687,108.046,47.793,107.704"/>
			<path fill="#FFFFFF" d="M49.052,100.359V50.533H35.324v61.014h12.229c0,0-1.92,0.061-1.079-3.24L49.052,100.359z"/>
			<path fill="#FFFFFF" d="M121.877,111.548h42.514v-9.907h-28.865v-15.25h20.492l1.551-9.914h-22.043v-16.03h28.865v-9.912h-42.514
				v32.029l10.33-14.574c0,0,0.533-1.074,1.232-0.565c0,0,1.688,1.19,0.732,3.334c-0.951,2.147-5.087,10.337-12.355,20.527
				L121.877,111.548z"/>
			<path fill="#FFFFFF" d="M36.287,124.26c0,0,0.295-0.125,0.895-0.125c0.611,0,0.922,0.125,0.922,0.125v9.975
				c0,0-0.325,0.131-0.908,0.131c-0.654,0-0.908-0.131-0.908-0.131L36.287,124.26L36.287,124.26z"/>
			<path fill="#FFFFFF" d="M46.06,134.25c0,0-0.312,0.113-0.892,0.113c-0.627,0-0.897-0.113-0.897-0.113v-5.031
				c0-0.607-0.327-1.023-1.136-1.023c-0.468,0-0.909,0.201-1.25,0.525v5.529c0,0-0.313,0.113-0.894,0.113
				c-0.627,0-0.897-0.113-0.897-0.113v-7.246c0,0,0.27-0.115,0.897-0.115c0.581,0,0.894,0.115,0.894,0.115v0.426
				c0.493-0.453,1.164-0.684,1.945-0.684c1.463,0,2.229,0.882,2.229,2.16L46.06,134.25L46.06,134.25z"/>
			<path fill="#FFFFFF" d="M50.324,126.746c1.521,0,2.088,0.412,2.088,0.412c0,0.455-0.141,0.966-0.457,1.267
				c0,0-0.664-0.228-1.447-0.228c-0.825,0-1.219,0.281-1.219,0.795c0,0.611,0.908,0.708,1.802,1.021
				c0.853,0.301,1.692,0.797,1.692,2.133c0,1.506-0.927,2.356-2.787,2.356c-1.548,0-2.459-0.542-2.459-0.542
				c0-0.523,0.157-1.008,0.486-1.318c0,0,0.924,0.34,1.89,0.34c0.765,0,1.106-0.27,1.106-0.793c0-0.61-0.696-0.77-1.464-0.996
				c-0.936-0.284-1.975-0.684-1.975-2.145C47.581,127.668,48.463,126.746,50.324,126.746"/>
			<path fill="#FFFFFF" d="M56.517,131.591c0,1.21,0.443,1.479,1.351,1.479c0.229,0,0.499-0.045,0.499-0.045
				s0.126,0.313,0.126,0.711c0,0.384-0.099,0.642-0.099,0.642c-0.341,0.099-0.724,0.128-1.049,0.128
				c-1.821,0-2.618-0.951-2.618-2.826v-3.47h-1.079c0,0-0.099-0.256-0.099-0.653c0-0.438,0.099-0.668,0.099-0.668h1.079v-1.221
				c0.47-0.283,1.136-0.413,1.791-0.355v1.576h1.678c0,0,0.102,0.242,0.102,0.654c0,0.383-0.102,0.667-0.102,0.667h-1.678
				L56.517,131.591L56.517,131.591z"/>
			<path fill="#FFFFFF" d="M61.532,125.641c0,0-0.313,0.112-0.895,0.112c-0.625,0-0.894-0.112-0.894-0.112v-1.636
				c0,0,0.27-0.112,0.894-0.112c0.581,0,0.895,0.112,0.895,0.112V125.641z M61.532,134.25c0,0-0.313,0.113-0.895,0.113
				c-0.625,0-0.894-0.113-0.894-0.113v-7.246c0,0,0.27-0.115,0.894-0.115c0.581,0,0.895,0.115,0.895,0.115V134.25z"/>
			<path fill="#FFFFFF" d="M65.725,131.591c0,1.21,0.442,1.479,1.349,1.479c0.23,0,0.5-0.045,0.5-0.045s0.126,0.313,0.126,0.711
				c0,0.384-0.101,0.642-0.101,0.642c-0.339,0.099-0.724,0.128-1.049,0.128c-1.821,0-2.616-0.951-2.616-2.826v-3.47h-1.079
				c0,0-0.101-0.256-0.101-0.653c0-0.438,0.101-0.668,0.101-0.668h1.079v-1.221c0.468-0.283,1.136-0.413,1.791-0.355v1.576h1.678
				c0,0,0.097,0.242,0.097,0.654c0,0.383-0.097,0.667-0.097,0.667h-1.678V131.591L65.725,131.591z"/>
			<path fill="#FFFFFF" d="M68.88,127.004c0,0,0.313-0.115,0.895-0.115c0.625,0,0.896,0.115,0.896,0.115v5.03
				c0,0.608,0.325,1.022,1.136,1.022c0.466,0,0.906-0.188,1.248-0.529v-5.523c0,0,0.313-0.115,0.894-0.115
				c0.627,0,0.897,0.115,0.897,0.115v7.246c0,0-0.27,0.113-0.897,0.113c-0.581,0-0.894-0.113-0.894-0.113v-0.43
				c-0.498,0.457-1.18,0.686-1.945,0.686c-1.461,0-2.229-0.881-2.229-2.162L68.88,127.004L68.88,127.004z"/>
			<path fill="#FFFFFF" d="M79.01,131.591c0,1.21,0.438,1.479,1.349,1.479c0.229,0,0.495-0.045,0.495-0.045s0.13,0.313,0.13,0.711
				c0,0.384-0.102,0.642-0.102,0.642c-0.342,0.099-0.725,0.128-1.049,0.128c-1.821,0-2.614-0.951-2.614-2.826v-3.47h-1.081
				c0,0-0.099-0.256-0.099-0.653c0-0.438,0.099-0.668,0.099-0.668h1.081v-1.221c0.468-0.283,1.134-0.413,1.791-0.355v1.576h1.675
				c0,0,0.103,0.242,0.103,0.654c0,0.383-0.103,0.667-0.103,0.667H79.01V131.591z"/>
			<path fill="#FFFFFF" d="M85.175,126.746c2.018,0,3.266,1.068,3.266,3.881s-1.263,3.879-3.266,3.879
				c-2.005,0-3.268-1.066-3.268-3.879S83.17,126.746,85.175,126.746 M85.175,128.111c-0.863,0-1.436,0.498-1.436,2.516
				s0.572,2.516,1.436,2.516c0.865,0,1.418-0.498,1.418-2.516S86.04,128.111,85.175,128.111"/>
			<path fill="#FFFFFF" d="M95.814,128.521c-0.54-0.996-0.925-2.086-0.925-2.086h-0.055c0,0,0.115,1.121,0.115,2.6v5.199
				c0,0-0.271,0.129-0.854,0.129c-0.571,0-0.822-0.129-0.822-0.129v-9.977c0,0,0.381-0.125,1.09-0.125
				c0.727,0,1.081,0.125,1.081,0.125l2.928,5.686c0.553,1.022,0.949,2.131,0.949,2.131h0.061c0,0-0.115-1.191-0.115-2.643v-5.174
				c0,0,0.255-0.125,0.852-0.125c0.598,0,0.824,0.125,0.824,0.125v9.977c0,0-0.34,0.129-1.064,0.129
				c-0.709,0-1.109-0.129-1.109-0.129L95.814,128.521z"/>
			<path fill="#FFFFFF" d="M105.633,126.746c2.071,0,2.844,0.854,2.844,2.645v4.859c0,0-0.199,0.109-0.697,0.109
				c-0.439,0-0.725-0.109-0.725-0.109l-0.271-0.768c-0.326,0.666-1.052,1.021-2.071,1.021c-1.352,0-2.205-0.795-2.205-2.461
				c0-1.604,1.014-2.256,2.771-2.256c0.5,0,0.998,0.025,1.408,0.066v-0.311c0-0.71-0.254-1.294-1.276-1.294
				c-0.938,0-1.821,0.342-1.821,0.342s-0.227-0.142-0.396-0.526c-0.17-0.383-0.115-0.75-0.115-0.75S104.125,126.746,105.633,126.746
				 M105.506,130.98c-0.727,0-1.15,0.299-1.15,1.063c0,0.813,0.381,1.1,1.021,1.1c0.993,0,1.307-0.926,1.307-1.68v-0.427
				C106.329,131.01,105.916,130.98,105.506,130.98"/>
			<path fill="#FFFFFF" d="M111.813,130.627c0,1.689,0.514,2.371,1.722,2.371c0.723,0,1.276-0.197,1.276-0.197
				c0.301,0.271,0.481,0.781,0.498,1.264c0,0-0.613,0.44-2.131,0.44c-2.174,0-3.199-1.35-3.199-3.878
				c0-2.529,1.025-3.881,3.199-3.881c1.461,0,1.99,0.372,1.99,0.372c0,0.467-0.188,0.964-0.498,1.263c0,0-0.482-0.184-1.193-0.184
				C112.255,128.197,111.813,128.936,111.813,130.627"/>
			<path fill="#FFFFFF" d="M118.447,125.641c0,0-0.313,0.112-0.896,0.112c-0.623,0-0.894-0.112-0.894-0.112v-1.636
				c0,0,0.271-0.112,0.894-0.112c0.584,0,0.896,0.112,0.896,0.112V125.641z M118.447,134.25c0,0-0.313,0.113-0.896,0.113
				c-0.623,0-0.894-0.113-0.894-0.113v-7.246c0,0,0.271-0.115,0.894-0.115c0.584,0,0.896,0.115,0.896,0.115V134.25z"/>
			<path fill="#FFFFFF" d="M123.292,126.746c2.019,0,3.271,1.068,3.271,3.881s-1.265,3.879-3.271,3.879
				c-2.003,0-3.267-1.066-3.267-3.879S121.289,126.746,123.292,126.746 M123.292,128.111c-0.866,0-1.433,0.498-1.433,2.516
				s0.564,2.516,1.433,2.516c0.865,0,1.421-0.498,1.421-2.516S124.157,128.111,123.292,128.111"/>
			<path fill="#FFFFFF" d="M134.074,134.25c0,0-0.313,0.113-0.895,0.113c-0.625,0-0.896-0.113-0.896-0.113v-5.031
				c0-0.607-0.325-1.023-1.139-1.023c-0.465,0-0.904,0.201-1.246,0.525v5.529c0,0-0.313,0.113-0.896,0.113
				c-0.627,0-0.896-0.113-0.896-0.113v-7.246c0,0,0.27-0.115,0.896-0.115c0.581,0,0.896,0.115,0.896,0.115v0.426
				c0.498-0.453,1.164-0.684,1.945-0.684c1.461,0,2.229,0.882,2.229,2.16L134.074,134.25L134.074,134.25z"/>
			<path fill="#FFFFFF" d="M138.578,126.746c2.076,0,2.842,0.854,2.842,2.645v4.859c0,0-0.197,0.109-0.695,0.109
				c-0.438,0-0.722-0.109-0.722-0.109l-0.272-0.768c-0.324,0.666-1.053,1.021-2.072,1.021c-1.352,0-2.203-0.795-2.203-2.461
				c0-1.604,1.009-2.256,2.771-2.256c0.494,0,0.996,0.025,1.404,0.066v-0.311c0-0.71-0.258-1.294-1.277-1.294
				c-0.938,0-1.815,0.342-1.815,0.342s-0.229-0.142-0.397-0.526c-0.174-0.383-0.115-0.75-0.115-0.75
				S137.076,126.746,138.578,126.746 M138.451,130.98c-0.725,0-1.146,0.299-1.146,1.063c0,0.813,0.379,1.1,1.022,1.1
				c0.991,0,1.304-0.926,1.304-1.68v-0.427C139.275,131.01,138.863,130.98,138.451,130.98"/>
			<path fill="#FFFFFF" d="M145.061,134.25c0,0-0.313,0.113-0.896,0.113c-0.629,0-0.896-0.113-0.896-0.113v-10.432
				c0,0,0.268-0.111,0.896-0.111c0.581,0,0.896,0.111,0.896,0.111V134.25z"/>
			<path fill="#FFFFFF" d="M155.188,123.705c0.601,0,0.887,0.113,0.887,0.113v10.432c0,0-0.314,0.113-0.758,0.113
				c-0.453,0-0.823-0.113-0.823-0.113l-0.11-0.611c-0.398,0.555-1.025,0.866-2.021,0.866c-1.592,0-2.627-0.979-2.627-3.878
				s1.035-3.881,2.627-3.881c0.91,0,1.507,0.258,1.92,0.738v-3.666C154.279,123.818,154.59,123.705,155.188,123.705 M153,128.197
				c-0.895,0-1.42,0.427-1.42,2.43s0.525,2.428,1.42,2.428c0.795,0,1.279-0.638,1.279-1.531v-1.85
				C154.249,128.809,153.768,128.197,153,128.197"/>
			<path fill="#FFFFFF" d="M159.464,131.182c0.127,1.448,0.767,1.816,1.763,1.816c0.951,0,1.623-0.339,1.623-0.339
				c0.295,0.284,0.524,0.766,0.539,1.264c0,0-0.841,0.582-2.416,0.582c-2.318,0-3.341-1.35-3.341-3.921
				c0-2.686,1.277-3.838,3.239-3.838c1.763,0,2.913,0.91,2.913,2.941c0,0.91-0.157,1.494-0.157,1.494H159.464L159.464,131.182z
				 M160.871,128.141c-0.725,0-1.268,0.483-1.393,1.803h2.504c0.01-0.155,0.022-0.312,0.022-0.469
				C162.007,128.736,161.768,128.141,160.871,128.141"/>
			<path fill="#FFFFFF" d="M42.296,137.223c0.088,0.215,0.146,0.442,0.146,0.683c0,0.271-0.044,0.544-0.146,0.782h-4.047v2.871
				h3.338c0.085,0.227,0.143,0.469,0.143,0.709c0,0.26-0.044,0.513-0.143,0.752h-3.338v2.973h4.193
				c0.083,0.229,0.141,0.469,0.141,0.709c0,0.257-0.044,0.514-0.141,0.755H36.43v-10.229h5.866V137.223z"/>
			<path fill="#FFFFFF" d="M47.113,139.839c1.519,0,2.088,0.411,2.088,0.411c0,0.454-0.141,0.966-0.454,1.266
				c0,0-0.668-0.228-1.45-0.228c-0.825,0-1.222,0.285-1.222,0.794c0,0.611,0.911,0.711,1.805,1.023
				c0.853,0.299,1.69,0.795,1.69,2.131c0,1.506-0.924,2.357-2.784,2.357c-1.549,0-2.459-0.537-2.459-0.537
				c0-0.527,0.156-1.014,0.484-1.322c0,0,0.924,0.342,1.89,0.342c0.767,0,1.108-0.271,1.108-0.797c0-0.61-0.696-0.77-1.466-0.994
				c-0.936-0.284-1.973-0.682-1.973-2.146C44.371,140.762,45.253,139.839,47.113,139.839"/>
			<path fill="#FFFFFF" d="M53.903,144.684c0,1.207,0.44,1.479,1.35,1.479c0.226,0,0.499-0.043,0.499-0.043s0.126,0.313,0.126,0.71
				c0,0.386-0.099,0.644-0.099,0.644c-0.341,0.098-0.726,0.127-1.051,0.127c-1.818,0-2.616-0.953-2.616-2.828v-3.467h-1.079
				c0,0-0.099-0.258-0.099-0.654c0-0.439,0.099-0.666,0.099-0.666h1.079v-1.224c0.47-0.284,1.139-0.411,1.791-0.356v1.58h1.676
				c0,0,0.101,0.24,0.101,0.651c0,0.386-0.101,0.669-0.101,0.669h-1.676V144.684z"/>
			<path fill="#FFFFFF" d="M60.396,139.84c2.074,0,2.844,0.852,2.844,2.641v4.859c0,0-0.2,0.114-0.698,0.114
				c-0.438,0-0.722-0.114-0.722-0.114l-0.272-0.766c-0.327,0.665-1.051,1.021-2.074,1.021c-1.351,0-2.204-0.796-2.204-2.459
				c0-1.604,1.01-2.26,2.77-2.26c0.499,0,0.996,0.029,1.409,0.074v-0.314c0-0.71-0.256-1.293-1.279-1.293
				c-0.936,0-1.818,0.343-1.818,0.343s-0.229-0.144-0.399-0.524c-0.168-0.386-0.111-0.753-0.111-0.753S58.893,139.84,60.396,139.84
				 M60.271,144.07c-0.729,0-1.153,0.3-1.153,1.064c0,0.811,0.383,1.098,1.021,1.098c0.996,0,1.309-0.926,1.309-1.678v-0.428
				C61.095,144.104,60.68,144.07,60.271,144.07"/>
			<path fill="#FFFFFF" d="M70.828,136.799c0.597,0,0.878,0.112,0.878,0.112v10.429c0,0-0.313,0.114-0.754,0.114
				c-0.454,0-0.82-0.114-0.82-0.114l-0.116-0.611c-0.399,0.557-1.023,0.867-2.017,0.867c-1.595,0-2.63-0.979-2.63-3.879
				c0-2.896,1.035-3.878,2.63-3.878c0.908,0,1.503,0.255,1.916,0.736v-3.664C69.915,136.911,70.228,136.799,70.828,136.799
				 M68.638,141.286c-0.894,0-1.421,0.429-1.421,2.431c0,2.004,0.528,2.43,1.421,2.43c0.795,0,1.277-0.641,1.277-1.535v-1.848
				C69.887,141.896,69.406,141.286,68.638,141.286"/>
			<path fill="#FFFFFF" d="M75.004,138.9c-0.415-0.07-0.784-0.241-0.996-0.543l1.222-1.941c0.569-0.073,1.293,0.24,1.549,0.637
				L75.004,138.9z M75.981,147.34c0,0-0.312,0.114-0.895,0.114c-0.625,0-0.894-0.114-0.894-0.114v-7.248c0,0,0.27-0.111,0.894-0.111
				c0.583,0,0.895,0.111,0.895,0.111V147.34z"/>
			<path fill="#FFFFFF" d="M80.911,139.839c1.521,0,2.09,0.411,2.09,0.411c0,0.454-0.143,0.966-0.455,1.266
				c0,0-0.666-0.228-1.45-0.228c-0.823,0-1.22,0.285-1.22,0.794c0,0.611,0.911,0.711,1.805,1.023
				c0.851,0.299,1.692,0.795,1.692,2.131c0,1.506-0.927,2.357-2.786,2.357c-1.549,0-2.46-0.537-2.46-0.537
				c0-0.527,0.157-1.014,0.483-1.322c0,0,0.925,0.342,1.891,0.342c0.768,0,1.108-0.271,1.108-0.797c0-0.61-0.698-0.77-1.464-0.994
				c-0.936-0.284-1.977-0.682-1.977-2.146C78.168,140.762,79.054,139.839,80.911,139.839"/>
			<path fill="#FFFFFF" d="M87.704,144.684c0,1.207,0.439,1.479,1.35,1.479c0.227,0,0.498-0.043,0.498-0.043s0.125,0.313,0.125,0.71
				c0,0.386-0.1,0.644-0.1,0.644c-0.339,0.098-0.721,0.127-1.049,0.127c-1.82,0-2.615-0.953-2.615-2.828v-3.467h-1.078
				c0,0-0.1-0.258-0.1-0.654c0-0.439,0.1-0.666,0.1-0.666h1.078v-1.224c0.467-0.284,1.136-0.411,1.791-0.356v1.58h1.678
				c0,0,0.097,0.24,0.097,0.651c0,0.386-0.097,0.669-0.097,0.669h-1.678V144.684z"/>
			<path fill="#FFFFFF" d="M93.315,138.73c0,0-0.313,0.109-0.894,0.109c-0.628,0-0.897-0.109-0.897-0.109v-1.633
				c0,0,0.27-0.117,0.897-0.117c0.581,0,0.894,0.117,0.894,0.117V138.73z M93.315,147.34c0,0-0.313,0.114-0.894,0.114
				c-0.628,0-0.897-0.114-0.897-0.114v-7.248c0,0,0.27-0.111,0.897-0.111c0.581,0,0.894,0.111,0.894,0.111V147.34z"/>
			<path fill="#FFFFFF" d="M97.321,143.717c0,1.69,0.515,2.371,1.72,2.371c0.724,0,1.281-0.197,1.281-0.197
				c0.298,0.271,0.481,0.779,0.497,1.267c0,0-0.609,0.438-2.132,0.438c-2.173,0-3.196-1.351-3.196-3.879
				c0-2.529,1.023-3.878,3.196-3.878c1.464,0,1.989,0.368,1.989,0.368c0,0.47-0.184,0.966-0.497,1.266c0,0-0.484-0.187-1.194-0.187
				C97.762,141.286,97.321,142.025,97.321,143.717"/>
			<path fill="#FFFFFF" d="M105.434,139.84c2.075,0,2.844,0.852,2.844,2.641v4.859c0,0-0.196,0.114-0.695,0.114
				c-0.438,0-0.725-0.114-0.725-0.114l-0.271-0.766c-0.323,0.665-1.051,1.021-2.073,1.021c-1.35,0-2.203-0.796-2.203-2.459
				c0-1.604,1.01-2.26,2.773-2.26c0.497,0,0.994,0.029,1.402,0.074v-0.314c0-0.71-0.256-1.293-1.278-1.293
				c-0.937,0-1.813,0.343-1.813,0.343s-0.229-0.144-0.401-0.524c-0.168-0.386-0.11-0.753-0.11-0.753S103.928,139.84,105.434,139.84
				 M105.309,144.07c-0.727,0-1.149,0.3-1.149,1.064c0,0.811,0.381,1.098,1.022,1.098c0.99,0,1.305-0.926,1.305-1.678v-0.428
				C106.131,144.104,105.718,144.07,105.309,144.07"/>
			<path fill="#FFFFFF" d="M113.137,139.839c1.518,0,2.088,0.411,2.088,0.411c0,0.454-0.142,0.966-0.455,1.266
				c0,0-0.668-0.228-1.449-0.228c-0.822,0-1.223,0.285-1.223,0.794c0,0.611,0.911,0.711,1.81,1.023
				c0.85,0.299,1.688,0.795,1.688,2.131c0,1.506-0.926,2.357-2.787,2.357c-1.547,0-2.457-0.537-2.457-0.537
				c0-0.527,0.155-1.014,0.483-1.322c0,0,0.922,0.342,1.888,0.342c0.77,0,1.108-0.271,1.108-0.797c0-0.61-0.694-0.77-1.466-0.994
				c-0.938-0.284-1.973-0.682-1.973-2.146C110.393,140.762,111.275,139.839,113.137,139.839"/>
			<path fill="#FFFFFF" d="M136.335,137.082c1.577,0,2.458,0.496,2.458,0.496c0.043,0.583-0.213,0.994-0.54,1.352
				c0,0-0.81-0.299-1.717-0.299c-1.509,0-2.603,0.779-2.603,3.725c0,2.94,1.094,3.664,2.603,3.664c1.021,0,1.86-0.299,1.86-0.299
				c0.354,0.326,0.539,0.853,0.539,1.377c0,0-0.953,0.498-2.603,0.498c-2.813,0-4.302-1.832-4.302-5.258
				C132.033,138.914,133.521,137.082,136.335,137.082"/>
			<path fill="#FFFFFF" d="M146.807,147.34c0,0-0.313,0.114-0.896,0.114c-0.624,0-0.896-0.114-0.896-0.114v-5.031
				c0-0.607-0.328-1.021-1.136-1.021c-0.469,0-0.909,0.198-1.252,0.526v5.525c0,0-0.312,0.114-0.892,0.114
				c-0.631,0-0.897-0.114-0.897-0.114v-10.428c0,0,0.269-0.113,0.897-0.113c0.58,0,0.892,0.113,0.892,0.113v3.607
				c0.497-0.455,1.166-0.682,1.947-0.682c1.464,0,2.231,0.878,2.231,2.158V147.34L146.807,147.34z"/>
			<path fill="#FFFFFF" d="M151.023,138.73c0,0-0.313,0.109-0.895,0.109c-0.626,0-0.896-0.109-0.896-0.109v-1.633
				c0,0,0.271-0.117,0.896-0.117c0.58,0,0.895,0.117,0.895,0.117V138.73z M151.023,147.34c0,0-0.313,0.114-0.895,0.114
				c-0.626,0-0.896-0.114-0.896-0.114v-7.248c0,0,0.271-0.111,0.896-0.111c0.58,0,0.895,0.111,0.895,0.111V147.34z"/>
			<path fill="#FFFFFF" d="M155.329,147.34c0,0-0.313,0.114-0.894,0.114c-0.625,0-0.896-0.114-0.896-0.114v-10.428
				c0,0,0.271-0.113,0.896-0.113c0.58,0,0.894,0.113,0.894,0.113V147.34z"/>
			<path fill="#FFFFFF" d="M159.35,144.271c0.129,1.448,0.77,1.815,1.768,1.815c0.947,0,1.617-0.341,1.617-0.341
				c0.297,0.286,0.527,0.771,0.539,1.268c0,0-0.84,0.581-2.416,0.581c-2.315,0-3.338-1.351-3.338-3.922
				c0-2.685,1.276-3.835,3.238-3.835c1.764,0,2.911,0.907,2.911,2.939c0,0.908-0.157,1.49-0.157,1.49h-4.162V144.271z
				 M160.758,141.23c-0.724,0-1.266,0.482-1.393,1.805h2.503c0.012-0.158,0.024-0.314,0.024-0.471
				C161.895,141.825,161.654,141.23,160.758,141.23"/>
			<path fill="#FFFFFF" d="M126.172,143.314c0,0.938-0.775,1.713-1.72,1.713c-0.942,0-1.706-0.773-1.706-1.713
				c0-0.943,0.764-1.707,1.706-1.707C125.402,141.607,126.172,142.371,126.172,143.314"/>
		</g>
	</g>
</g>
</svg>
