<?xml version="1.0" encoding="utf-8"?>
<!-- Generator: Adobe Illustrator 16.0.0, SVG Export Plug-In . SVG Version: 6.00 Build 0)  -->
<!DOCTYPE svg PUBLIC "-//W3C//DTD SVG 1.1//EN" "http://www.w3.org/Graphics/SVG/1.1/DTD/svg11.dtd">
<svg version="1.1" id="Layer_1" xmlns="http://www.w3.org/2000/svg" xmlns:xlink="http://www.w3.org/1999/xlink" x="0px" y="0px"
	 width="153.159px" height="191.449px" viewBox="994.236 1103 153.159 191.449"
	 enable-background="new 994.236 1103 153.159 191.449" xml:space="preserve">
<title>CEPAL</title>
<g>
	<rect x="994.236" y="1103" fill="none" width="153.159" height="191.449"/>
	<path fill="#FFFFFF" d="M1035.943,1142.751c0.035-19.314,15.749-34.925,35.063-34.89c19.313,0.034,34.89,15.749,34.854,35.063
		c-0.035,19.279-15.679,34.854-34.959,34.854C1051.553,1177.778,1035.908,1162.063,1035.943,1142.751z M1050.134,1123.402
		l-3.946-3.807c-5.745,6.125-8.998,14.189-9.103,22.602h5.468C1042.657,1135.205,1045.358,1128.524,1050.134,1123.402z
		 M1054.842,1127.971l-3.877-3.772c-4.535,4.915-7.131,11.317-7.234,17.999h5.434
		C1049.269,1136.9,1051.277,1131.848,1054.842,1127.971L1054.842,1127.971z M1091.669,1162.099l3.945,3.808
		c5.746-6.161,9-14.191,9.103-22.602h-5.468C1099.112,1150.262,1096.41,1156.977,1091.669,1162.099z M1070.348,1114.334v-5.504
		c-8.792,0.139-17.168,3.703-23.363,9.934l3.945,3.808C1056.088,1117.414,1063.044,1114.473,1070.348,1114.334L1070.348,1114.334z
		 M1070.348,1120.91v-5.434c-6.992,0.138-13.637,2.977-18.553,7.891l3.877,3.773
		C1059.583,1123.264,1064.81,1121.049,1070.348,1120.91L1070.348,1120.91z M1070.348,1128.629v-6.611
		c-5.191,0.139-10.142,2.25-13.846,5.919l4.707,4.569C1063.667,1130.152,1066.921,1128.768,1070.348,1128.629L1070.348,1128.629z
		 M1070.348,1176.67v-5.502c-7.269-0.139-14.227-3.081-19.383-8.238l-3.945,3.807
		C1053.18,1172.932,1061.556,1176.497,1070.348,1176.67L1070.348,1176.67z M1071.49,1122.018v6.611
		c3.426,0.139,6.68,1.523,9.137,3.91l4.742-4.568C1081.631,1124.268,1076.682,1122.156,1071.49,1122.018L1071.49,1122.018z
		 M1047.643,1158.984c-0.521-0.243-1.143-0.52-1.523-0.728c-0.59-0.347-0.174-0.728-0.658-1.038
		c-0.484-0.313-0.623-0.313-1.107-0.623c-0.484-0.312,0.381-0.313-0.555-0.658c-0.311-0.104-0.346,0.347-0.934,0.242
		c-0.588-0.104-0.555-1.177-0.9-1.177c-1.038,0-1.211-1.35-1.246-2.249c-0.104-1.593,1.143-1.351,1.143-1.351l0.865,0.346
		l0.449-0.692c0.209,0,0.416,0.035,0.623,0.07c-0.761-2.526-1.176-5.123-1.246-7.788h-5.468c0.139,8.411,3.357,16.476,9.103,22.602
		l3.946-3.807C1049.235,1161.129,1048.404,1160.092,1047.643,1158.984z M1051.76,1160.541c-0.068-0.035-0.138-0.035-0.242-0.068
		c-0.311-0.069-0.588,0.207-1.002,0.346c0.137,0.173,0.275,0.311,0.414,0.484L1051.76,1160.541z M1059.272,1161.233l-0.034,0.035
		c-0.347,0.554-0.521,0.415-1.661,0.519c-1.143,0.104-1.42,0.692-2.216,0.797c-0.796,0.104-0.692,0-1.384-0.658
		c-0.347-0.312-0.729-0.623-1.109-0.865l-1.072,1.038c4.949,4.95,11.596,7.754,18.552,7.927v-5.434
		C1066.403,1164.487,1062.594,1163.311,1059.272,1161.233L1059.272,1161.233z M1045.703,1151.3c0.797-0.104,1.107,0.069,1.869-0.069
		s0.313-1.904,0.313-2.63c0-0.728,0.727-1.385,1.245-2.112c0.069-0.139,0.173-0.242,0.276-0.346
		c-0.138-0.936-0.242-1.904-0.242-2.873h-5.434c0.068,2.734,0.52,5.434,1.385,8.03
		C1045.287,1151.334,1045.496,1151.334,1045.703,1151.3L1045.703,1151.3z M1082.08,1132.679c0.242,0.415,1.212,1.903,1.904,2.458
		c0.831,0.623,1.904,1.106,2.492,1.488c0.588,0.38-0.762,0.449-0.242,0.865c0.52,0.414,1.593-0.763,1.869-0.763
		c0.484,0,0.865,0.347,0.9,0.831c0,0.034,0,0.069,0,0.104c0,0.796-0.451,1.419-0.07,1.488c0.382,0.07,1.523-1.522,1.627-2.77
		c-0.207-0.656-0.449-1.314-0.727-1.938c-0.761-0.83-1.869-1.004-1.902-1.488c-0.035-0.796,0.414-0.796,0.69-0.865
		c-0.726-1.212-1.558-2.354-2.491-3.393L1082.08,1132.679z M1065.813,1137.005c0.381,0,0.797,0,1.178-0.069
		c1.211-0.139,1.004-2.146,1.869-1.903c0.484,0.138,0.969,0.138,1.453,0v-5.296c-3.115,0.139-6.057,1.419-8.307,3.565
		L1065.813,1137.005z M1059.895,1135.967c0.449-0.139,0.936-0.242,1.419-0.277c1.903-0.174,1.903,1.419,1.903,1.419
		c0.312-0.069,0.588-0.138,0.9-0.173l-2.908-2.804C1060.726,1134.721,1060.276,1135.309,1059.895,1135.967L1059.895,1135.967z
		 M1054.149,1142.162c0.242-0.45,0.347-0.935,0.381-1.453c0.07-1.107,0.313-2.735,2.112-2.873c1.626-0.104-0.14-0.728,0.692-0.969
		c0.242-0.07,0.588-0.209,0.934-0.347c0.555-1.143,1.281-2.216,2.111-3.185l-4.742-4.568c-3.356,3.669-5.261,8.445-5.363,13.43
		L1054.149,1142.162z M1053.18,1145.277c0.068,0.346,0.727,0.484,0.381,1.522v0.035c0,0-0.691,0.381-0.691-0.069v-0.07
		c-0.035-0.414-0.244-0.969-0.174-1.729c0.104-0.624,0.381-1.212,0.762-1.696h-3.15c0.035,0.831,0.104,1.662,0.207,2.492
		l0.139,0.035c0.555,0.104,1.246,1.038,1.73,1.038c0.174,0,0.347-0.035,0.484-0.138v0.103c0,0.416,0.693,0.07,0.693,0.07v-0.07
		c0.416,0.243,0.691,0.624,0.83,1.073c0.277,1.004,0.623,2.008,1.004,2.977c0.277,0.588,0.416,1.246,0.416,1.904
		c0,0.691,0.588,0.796,0.623,1.314c0.034,0.52,0.242,1.488,0.242,1.488l-0.52,0.589l4.188-4.085
		c-1.73-1.938-2.872-4.325-3.322-6.852c-0.173-0.07-0.346-0.07-0.52,0c-0.727,0.242,0.207,1.626-0.519,1.486
		c-0.519-0.103-0.9-0.346-0.763-0.726c0.14-0.381,0.555,0.069,0.555-0.935c0-0.484-0.83-0.935-0.069-0.935
		c0.173,0,0.589,0.415,0.9,0.415c0.103,0,0.173,0,0.276-0.034c-0.034-0.381-0.069-0.763-0.104-1.143l-0.104-0.069h-0.97
		c-0.034,0.173-0.173,0.312-0.554,0.312c-1.28,0.035-0.865,0.728-0.935,1.107C1054.149,1145.069,1053.112,1144.932,1053.18,1145.277
		L1053.18,1145.277z M1056.953,1141.193c-0.555-0.242-1.628-0.208-1.628,0.346c0,0.207,0.069,0.416,0.173,0.589h1.42
		C1056.883,1141.851,1056.883,1141.539,1056.953,1141.193L1056.953,1141.193z M1063.667,1148.98c-1.419,0,0-2.008-0.381-2.111
		c-0.935-0.242-0.45,1.073-0.83,1.073c-0.382-0.035-0.728-0.312-0.831-0.692c0-0.242,0.173-0.865-0.312-0.865
		c-0.483,0-1.107-0.277-1.558-0.415c-0.484-0.139-0.935-0.208-1.419-0.312c0.485,2.111,1.488,4.049,2.907,5.676L1063.667,1148.98z
		 M1065.675,1146.592c-0.104-0.104-0.242-0.138-0.415-0.138c-0.52,0-0.936,1.626-1.315,2.249l1.903-1.868
		C1065.78,1146.766,1065.709,1146.662,1065.675,1146.592L1065.675,1146.592z M1063.633,1143.305
		c-0.07,0.242-0.173,0.449-0.347,0.623c-0.276,0.312,0.589,0.381,1.212,0.276h0.069c-0.069-0.276-0.104-0.588-0.14-0.865
		L1063.633,1143.305z M1070.313,1136.07c-0.312-0.139-0.623-0.104-0.52,0.242c0.174-0.034,0.347-0.034,0.52-0.069V1136.07z
		 M1072.113,1148.115c0.242-0.242,0.416-0.555,0.521-0.9c0.138-1.35,1.521-0.38,2.041-0.865c0.52-0.484,0.935-1.834,0.45-2.18
		c-0.485-0.347,1.212-0.069,1.073-0.623s-1.42,0.139-1.559-0.381c-0.138-0.52-1.003-0.555-0.449-3.185
		c0.139-0.589-1.143-0.138-1.35-1.73c-0.035-0.347-1.281-0.138-1.662-0.415c-0.207-0.174-0.415-0.381-0.52-0.623
		c-0.207,0-0.414,0.033-0.623,0.068c0.104,0.52,0.104,1.039-0.207,1.246c-0.52,0.312-0.969,0.277-1.35,0.52s0.139,0.555-0.313,0.865
		c-0.449,0.312-1.279,0.52-1.211,0.935c0.07,0.415,0.727,0.623,0.52,0.865c-0.207,0.243-0.727-0.38-0.9,0.069
		c-0.172,0.449,0,1.627-0.519,1.627s0-0.797-0.658-1.038c0,0.138,0,0.276,0,0.415c0,0.346,0.035,0.727,0.104,1.073
		c0.068,0,0.173,0,0.242,0c0.554,0.069-0.139,0.346,0.554,0.346s0.484-1.246,0.97-1.177c0.484,0.07,0.242,1.938-0.313,2.354
		c-0.553,0.416-0.52-0.381-0.692,0.07c-0.034,0.068-0.069,0.138-0.069,0.207c0.174,0.312,0.381,0.588,0.623,0.83
		c0.658,0,0.555-1.004,0.97-1.107s-0.069-1.385,1.003-1.488c1.074-0.104,1.662-0.416,1.974,0.347
		c0.312,0.761-0.762,2.838-1.246,2.907c-1.142,0.139-1.8-0.139-1.8,0.139c0,0.034,0,0.034,0,0.068
		c1.281,0.9,2.838,1.212,4.361,0.865L1072.113,1148.115z M1071.49,1151.369c0.346-0.242,0.622-0.555,0.83-0.936
		c0.623-1.384-0.9,0-0.762-1.107v-0.104h-0.068V1151.369z M1070.313,1155.246c-0.207,0.034-0.415,0.034-0.588-0.07
		c-0.415-0.311-0.52-1.799,0.588-1.973v-3.945c-1.35-0.139-2.664-0.692-3.668-1.593l-4.639,4.5c2.25,2.146,5.191,3.427,8.307,3.565
		V1155.246z M1071.49,1155.143c0.311-0.174,0.691-0.277,1.072-0.277c1.385-0.104,1.211,0.277,1.627,0.449
		c1.522-0.414,2.977-1.107,4.292-2.042c-0.276-0.415-0.692,0.485-1.28,0.347c-0.589-0.139-0.693-0.831,0-1.385
		c0.691-0.553,1.28-0.83,0.935-1.176c-0.347-0.347-1.281,0.068-1.593,0.623c-0.312,0.553-0.173,2.354-0.691,2.422
		c-0.623,0.069-1.246-0.035-1.87-0.242c-2.042-0.623-1.903,0.657-2.284,0.865l-0.174,0.104L1071.49,1155.143z M1070.313,1162.479
		c-0.554,0.034-1.143-0.034-1.661-0.241c-1.28-0.382-2.562-2.389-2.562-2.805s0.52-0.623,0.623-0.935s0.174-0.761,0.313-1.107
		c0.207-0.347,0.449-0.658,0.761-0.9c-2.491-0.554-4.776-1.8-6.61-3.565l-4.223,4.085c0.727,0.312,0.207,0.623,0.761,1.28
		c0.554,0.658,1.212,0.658,1.661,1.073c0.174,0.208,0.277,0.45,0.242,0.728c3.185,2.076,6.854,3.253,10.66,3.356L1070.313,1162.479z
		 M1074.467,1163.137c-0.104-0.311-0.243-0.623-0.416-0.898c-0.346-0.416-1.385-0.035-2.561,0.103v1.073
		C1072.493,1163.414,1073.463,1163.345,1074.467,1163.137L1074.467,1163.137z M1080.939,1170.06
		c-0.415-0.034-0.796-0.138-1.142-0.347c-0.416-0.242-0.865-0.519-1.212-0.761c-0.899-0.623-1.661-1.384-2.319-2.251
		c-0.588-0.795,0.589-1.695-0.935-2.595c-1.28,0.276-2.561,0.415-3.842,0.45v5.434c2.389-0.035,4.776-0.415,7.062-1.072
		c0.415,0.241,0.83,0.553,1.246,0.795c-2.7,0.9-5.504,1.385-8.342,1.42v5.504c8.757-0.14,17.133-3.705,23.328-9.936l-3.945-3.807
		c-1.8,1.8-3.842,3.323-6.057,4.604C1083.432,1168.676,1081.457,1170.095,1080.939,1170.06L1080.939,1170.06z M1083.05,1155.314
		c-2.076,0.242-3.288-1.314-3.634-1.072s-0.381,0.414-0.381,0.623c0,0.207,3.254,0.969,4.084,1.038c0.139,0,0.313-0.035,0.416-0.104
		L1083.05,1155.314z M1087.274,1143.305c0.068,0.139,0.104,0.276,0.104,0.449c0.068,0.555,2.041,2.389,2.041,3.046
		c0,0.658-1.107,0.589-1.868,0.692c-1.522,0.208-1.522,0.658-1.974,0.623c-0.449-0.035-0.207-0.623-0.311-0.52
		c-0.242,0.242-0.969,1.627-1.281,2.111c-0.312,0.484-1.177,1.005-1.765,1.385c-0.208,0.277-0.416,0.555-0.623,0.797
		c0.207,0.414,1.28-0.313,1.695-0.451c0.416-0.138,0.45-1.003,0.97-1.072s0.588,0.242,0.9,1.004c0.311,0.762-0.313,0.313-0.52,2.284
		c0.035,0.45-0.139,0.865-0.416,1.212l0.104,0.104c0.242-0.313,0.589-0.52,0.97-0.623c1.003-0.139,0.553,0.484,0.727,1.246
		c0.068,0.276,0.207,0.554,0.449,0.727c3.15-3.634,4.949-8.238,5.053-13.049L1087.274,1143.305z M1091.358,1140.258
		c-0.174,0.139-0.381,0.174-0.589,0.07c-0.483-0.208,0.138-1.039,0.312-1.696c-0.069-0.312-0.139-0.658-0.207-0.97
		c-0.174,0.449-0.83,2.077-1.385,2.182c-0.555,0.104-0.623,0-1.211,0.553c-0.59,0.555-0.485,1.108-0.832,1.766h4.051
		C1091.496,1141.539,1091.426,1140.916,1091.358,1140.258L1091.358,1140.258z M1079.658,1133.162h-0.104c-0.52,0-0.762,0.52-1.107,0
		c-0.139-0.242,0.172-0.449,0.553-0.588c-2.146-1.73-4.741-2.734-7.511-2.873v4.984c0.276-0.035,0.589,0.035,0.831,0.174
		c1.661,1.176,1.558-1.42,2.318-0.865c1.073,0.761-1.661,1.626-1.107,2.18c0.555,0.555,0.623-0.484,1.212-0.381
		c0.588,0.139,0.381,0.728,1.28,0.728c0.9,0,0.52-1.8,2.25-2.042c0.104,0,0.207-0.035,0.346-0.069l0.484-0.484
		c-0.033-0.243-0.138-0.485,0.623-0.623l0.104-0.069L1079.658,1133.162z M1095.823,1131.848c-0.277,0.173-0.623,0.242-0.97,0.173
		c-0.899-0.138-1.038-1.973-2.042-2.354c-3.635-1.384-2.665-1.938-3.046-2.388c-0.312-0.381-1.143-0.208-1.522-0.623l-0.762,0.762
		c0.139,0.138,0.276,0.241,0.416,0.346c1.279,0.761,0.519,1.557,1.003,1.938c0.485,0.381,0.347-0.241,0.763,0.174
		c0.414,0.415-0.14,0.865,0.379,1.488c0.52,0.623,0.9,0.969,1.005,1.522c0.069,0.623,0.104,1.246,0.104,1.869
		c0.207,0.52,0.379,1.038,0.553,1.593c0.173-0.313,0.416-0.797,0.762-0.797s0,1.42-0.312,2.596c0.276,1.316,0.415,2.631,0.45,3.946
		h5.469C1098.002,1138.632,1097.241,1135.102,1095.823,1131.848z M1092.188,1122.883c0.416,0.45,1.072,0.935,1.281,1.177
		c0.554,0.728,1.038,1.488,1.453,2.319c0.45,0.865,2.699,3.876,1.834,4.742c1.558,3.496,2.389,7.268,2.458,11.076h5.468
		c-0.138-8.412-3.356-16.477-9.102-22.603L1092.188,1122.883z M1083.327,1117.207c0.415-0.174,1.211,0.173,1.626-0.588
		c0.348-0.59,1.801,0.449,2.043,0.138s-1.073-1.696,0.969-0.796c1.385,0.623,0,0.969,0.069,1.488
		c0.069,0.519,0.45-0.242,1.903,1.557c0.727,0.9-0.346,0.555,0.45,1.42s0.935,0.449,1.488,0.623
		c0.173,0.068,0.277,0.173,0.277,0.277l2.665-2.597c-6.196-6.229-14.537-9.796-23.329-9.934v5.503
		C1075.574,1114.403,1079.623,1115.372,1083.327,1117.207L1083.327,1117.207z M1071.594,1116.826
		c0.207-0.104,0.865,0.173,0.865,0.519c0,0.347-0.52,0.485-0.865,0.382c-0.035,0-0.104-0.035-0.139-0.07v3.254
		c4.776,0.139,9.346,1.8,13.083,4.811c-0.312-0.415-0.692-0.796-1.106-1.143c-0.451-0.172-0.762-0.691-0.313-1.003
		s-0.172-0.97,0.07-1.419c0.761,0,0.519,1.107,1.037,1.661c0.52,0.554,0.693-0.138,1.143,0.381c0.45,0.52,0.104,1.835,0.899,2.181
		c0.14,0.069,0.277,0.139,0.416,0.242l1.177-1.143c-0.207-0.796-0.484-1.73-1.039-2.042c-0.83-0.415-0.691,0.831-1.211,0.485
		c-0.934-0.623-0.762-2.596-0.762-2.596s-1.385-0.243-0.83-2.182c0.104-0.381-0.865-0.381-1.072-0.899
		c-3.566-1.766-7.477-2.735-11.457-2.804v1.488C1071.49,1116.895,1071.559,1116.861,1071.594,1116.826z M1089.696,1161.787
		c-0.415,0.174-0.865,0.104-0.969-0.312c-0.034-0.173-0.069-0.45-0.104-0.727l-2.458-2.388c-0.172,0.172-0.346,0.346-0.519,0.519
		c-0.034,0.104-0.034,0.208-0.034,0.312c0.139,0.762,1.662,1.558,1.73,2.042c0.069,0.484-0.83,1.696-0.83,2.181
		c0.034,0.588,0.034,1.143-0.035,1.73c1.28-0.899,2.457-1.903,3.564-2.977L1089.696,1161.787z M1089.385,1157.6
		c1.211-0.104,1.314,2.699,1.211,3.392c0,0.035,0,0.035,0,0.069l0.277,0.242c4.533-4.916,7.129-11.318,7.233-17.998h-5.435
		c-0.138,5.261-2.146,10.314-5.711,14.225l1.592,1.559C1088.588,1158.291,1088.83,1157.634,1089.385,1157.6L1089.385,1157.6z
		 M1040.408,1153.861c0.449-0.104,0.346,0.865,0.795,1.419c0.451,0.554,0.555,1.453,0.416,1.626
		c-0.276,0.313-0.381-0.588-0.762-1.487C1040.477,1154.519,1040.408,1154.068,1040.408,1153.861z M1089.765,1145.312
		c1.073-0.138,0.899,0.623,0.173,0.623S1088.693,1145.416,1089.765,1145.312z M1085.992,1152.822
		c0.449-0.311,0.83,0.069,0.381,0.313C1085.923,1153.377,1085.543,1153.135,1085.992,1152.822z M1055.672,1147.354
		c0.449-0.312,1.246,0.762,0.623,1.074C1055.672,1148.738,1055.223,1147.665,1055.672,1147.354z M1069.378,1147.7
		c0-0.173,0.174-0.276,0.415-0.276c0.242,0,0.347,0.034,0.347,0.207c0,0.207-0.138,0.346-0.347,0.381
		C1069.552,1147.977,1069.378,1147.873,1069.378,1147.7L1069.378,1147.7z M1071.733,1145.069c0-0.138,0.242-0.173,0.38-0.173
		c0.14,0,0.242,0.104,0.242,0.242s-0.103,0.242-0.242,0.242C1071.975,1145.381,1071.733,1145.207,1071.733,1145.069z
		 M1069.309,1142.646c0.623,0.554,0.45,0.935-0.346,0.797C1068.166,1143.305,1068.998,1142.37,1069.309,1142.646L1069.309,1142.646z
		 M1074.364,1144.551c0.138,0,0.103,0.519-0.035,0.519C1074.19,1145.069,1074.224,1144.551,1074.364,1144.551z M1078.067,1133.197
		c0.449,0.174,0.241,1.107-0.381,1.004C1077.063,1134.098,1077.615,1133.024,1078.067,1133.197L1078.067,1133.197z
		 M1077.028,1134.374c0.313,0.242-0.277,1.315-0.657,1.108C1075.99,1135.274,1076.717,1134.132,1077.028,1134.374L1077.028,1134.374
		z M1091.703,1132.816c0.45-0.138,1.004,2.111,0.554,2.32C1091.669,1135.378,1091.253,1132.955,1091.703,1132.816L1091.703,1132.816
		z M1089.869,1128.664c0.138,0,0.519,0.656,0.381,0.656C1089.662,1129.32,1089.489,1128.664,1089.869,1128.664L1089.869,1128.664z
		 M1079.936,1122.364c0,0,1.142,0.45,1.799,0.241c0.313-0.068,0.59-0.207,0.832-0.414c0,0,0.172,0.865-0.451,1.003
		C1081.492,1123.333,1079.936,1122.364,1079.936,1122.364L1079.936,1122.364z M1077.686,1116.861c0.381,0,0.657,0.691,0.068,0.691
		c-0.207,0-0.346-0.139-0.381-0.313C1077.338,1117.068,1077.478,1116.895,1077.686,1116.861L1077.686,1116.861z M1080.454,1121.533
		c0.138,0,0.52,0.658,0.415,0.658C1080.246,1122.191,1080.073,1121.533,1080.454,1121.533L1080.454,1121.533z M1077.444,1111.114
		c0.172,0.208-0.104,0.554-0.936,0.623c-0.83,0.069-1.314,0.589-1.73,0.173c-0.414-0.414,0.97-0.414,1.35-0.796
		C1076.508,1110.734,1076.855,1110.561,1077.444,1111.114L1077.444,1111.114z M1073.878,1111.461c0.346,0,0.728,1.627,0.554,1.869
		c-0.173,0.242-0.554,0.035-1.211-0.069c-0.658-0.104-0.346-0.623-0.9-0.623s-0.9,0.381-0.83-0.069
		C1071.559,1112.119,1073.567,1111.426,1073.878,1111.461L1073.878,1111.461z"/>
	<path fill="#FFFFFF" d="M1044.319,1110.873c-0.346,0.034-8.652,1.592-10.141,11.561
		C1038.504,1119.561,1042,1115.545,1044.319,1110.873z"/>
	<path fill="#FFFFFF" d="M1035.389,1113.814c-2.007,4.881-2.18,9.622-3.148,13.638c1.314-2.007,2.318-4.153,4.014-5.228
		c2.042-1.314,3.877-2.977,5.4-4.88c0.276,0.45,0.104,5.227-5.158,8.826c-3.737,2.526-6.16,6.438-6.16,6.438
		c0-6.75-1.039-5.33-0.693-9.104C1030.336,1116.064,1035.389,1113.814,1035.389,1113.814z"/>
	<path fill="#FFFFFF" d="M1028.848,1120.703c0,0-0.555,5.953-0.346,8.029c0.311,3.254,0.415,6.508,0.275,9.795
		c0,0,1.73-4.707,3.15-6.541c1.419-1.834,5.157-4.881,5.157-4.881c-0.657,3.22-2.008,6.23-4.015,8.826
		c-4.293,5.331-4.742,9.865-4.742,9.865s-2.873-6.369-3.149-13.533C1024.903,1124.476,1028.848,1120.703,1028.848,1120.703z"/>
	<path fill="#FFFFFF" d="M1022.721,1133.129c-0.346,1.73-1.314,6.402,0.174,11.18c1.487,4.775,3.771,5.607,7.268,12.148
		c-0.173-2.457-0.242-3.496,0.865-5.953c3.322-7.338,2.631-13.568,2.631-13.568s-3.219,5.02-3.773,6.818
		c-1.314,4.361-0.968,7.684-0.968,7.684s-1.938-6.748-2.631-9.103C1025.594,1139.981,1023.793,1137.49,1022.721,1133.129z"/>
	<path fill="#FFFFFF" d="M1022.895,1148.323c0,0,0.865,7.995,4.188,12.252c2.977,3.772,5.504,4.466,8.377,7.788
		c0.068,0-0.52-3.219-0.416-5.227s0.623-5.676,0.346-8.48c-0.52-5.33-1.904-8.582-1.904-8.582s-1.211,6.645-1.211,9.449
		c0,2.803,0.969,7.787,0.969,7.787s-3.08-5.504-4.707-7.269C1026.909,1154.277,1022.895,1148.323,1022.895,1148.323z"/>
	<path fill="#FFFFFF" d="M1026.044,1161.441c0,0,2.042,9.207,6.299,12.252c5.157,3.669,11.561,5.053,11.561,5.053
		c-1.315-4.291-1.558-8.929-2.354-10.764c-1.523-3.53-4.812-9.346-4.812-9.346s-0.865,6.23,0.762,10.419
		c1.143,2.872,2.631,5.677,2.631,5.677s-5.607-4.639-7.27-5.954C1030.266,1166.701,1027.948,1164.21,1026.044,1161.441z"/>
	<path fill="#FFFFFF" d="M1042.727,1168.26c0,0,0.97,6.023,2.008,7.961c2.527,4.811,5.504,6.299,5.504,6.299
		s-5.47-2.318-7.788-2.873c-6.819-1.661-10.592-4.119-10.592-4.119c0.519,1.316,4.534,6.404,10.142,9.104
		c4.188,2.008,9.622-0.969,13.014-0.969c-1.037-0.969-1.834-0.865-5.088-6.646C1046.639,1171.029,1042.727,1168.26,1042.727,1168.26
		z"/>
	<path fill="#FFFFFF" d="M1097.484,1110.873c0.347,0.034,8.653,1.592,10.142,11.561
		C1103.299,1119.561,1099.803,1115.545,1097.484,1110.873z"/>
	<path fill="#FFFFFF" d="M1106.414,1113.814c2.007,4.881,2.18,9.622,3.149,13.638c-1.315-2.007-2.319-4.153-4.015-5.228
		c-2.077-1.314-3.877-2.977-5.435-4.88c-0.277,0.45-0.104,5.227,5.157,8.826c3.772,2.597,6.195,6.473,6.195,6.473
		c0-6.749,1.038-5.33,0.692-9.103C1111.467,1116.064,1106.414,1113.814,1106.414,1113.814z"/>
	<path fill="#FFFFFF" d="M1112.955,1120.703c0,0,0.588,5.953,0.346,8.029c-0.311,3.254-0.414,6.508-0.276,9.795
		c0,0-1.73-4.707-3.149-6.541s-5.157-4.881-5.157-4.881c0.657,3.22,2.007,6.23,4.015,8.826c4.292,5.331,4.742,9.865,4.742,9.865
		s2.873-6.369,3.149-13.533C1116.901,1124.476,1112.955,1120.703,1112.955,1120.703z"/>
	<path fill="#FFFFFF" d="M1119.082,1133.129c0.346,1.73,1.314,6.402-0.174,11.18c-1.488,4.775-3.772,5.607-7.269,12.183
		c0.173-2.456,0.242-3.495-0.865-5.952c-3.323-7.338-2.63-13.568-2.63-13.568s3.219,5.018,3.772,6.818
		c1.315,4.361,0.97,7.684,0.97,7.684s1.938-6.749,2.63-9.103C1116.209,1140.016,1118.043,1137.49,1119.082,1133.129z"/>
	<path fill="#FFFFFF" d="M1118.908,1148.323c0,0-0.865,7.995-4.188,12.252c-2.977,3.772-5.504,4.466-8.377,7.788
		c-0.104,0,0.52-3.219,0.416-5.227s-0.623-5.676-0.346-8.48c0.519-5.33,1.938-8.582,1.938-8.582s1.212,6.645,1.212,9.449
		c0,2.803-0.97,7.787-0.97,7.787s3.081-5.504,4.742-7.269C1114.998,1154.277,1118.908,1148.323,1118.908,1148.323z"/>
	<path fill="#FFFFFF" d="M1115.759,1161.441c0,0-2.042,9.207-6.3,12.252c-5.157,3.669-11.525,5.053-11.525,5.053
		c1.315-4.291,1.557-8.929,2.354-10.764c1.523-3.53,4.811-9.346,4.811-9.346s0.865,6.23-0.796,10.419
		c-1.142,2.872-2.63,5.677-2.63,5.677s5.607-4.639,7.268-5.954C1111.535,1166.701,1113.856,1164.21,1115.759,1161.441z"/>
	<path fill="#FFFFFF" d="M1099.041,1168.26c0,0-0.969,6.023-2.008,7.961c-2.526,4.811-5.504,6.299-5.504,6.299
		s5.469-2.318,7.789-2.873c6.818-1.661,10.591-4.119,10.591-4.119c-0.519,1.316-4.534,6.404-10.142,9.104
		c-4.188,2.008-9.622-0.969-13.014-0.969c1.038-0.969,1.834-0.865,5.088-6.646C1095.164,1171.029,1099.041,1168.26,1099.041,1168.26
		z"/>
	<path fill="#FFFFFF" d="M1070.797,1186.016c0,0-4.534-1.662-8.999-1.765c-4.465-0.104-11.872,2.249-14.434,2.63
		c-3.046,0.45-7.856-0.623-7.856-0.623s2.631,4.016,11.906,4.119c7.338,0.069,12.772-4.016,17.479-3.945
		c-7.788,3.045-10.487,7.684-10.487,7.684l2.18,0.52c0,0,6.127-7.165,10.314-7.512c4.188,0.347,10.314,7.512,10.314,7.512
		l2.182-0.52c0,0-2.7-4.639-10.488-7.684c4.708-0.07,10.143,4.015,17.479,3.945c9.276-0.104,11.907-4.119,11.907-4.119
		s-4.812,1.039-7.857,0.623c-2.526-0.381-9.969-2.734-14.434-2.63C1075.539,1184.354,1070.797,1186.016,1070.797,1186.016z"/>
	<path fill="#FFFFFF" d="M1017.045,1211.109h-2.734v-0.173c0.207,0,0.346-0.069,0.346-0.173c-0.139-0.242-0.313-0.449-0.52-0.623
		c-0.554-0.554-1.765-1.869-3.737-3.98l0,0v4.431c0,0.208,0.138,0.312,0.415,0.346v0.173h-2.769v-0.173
		c0.276-0.034,0.415-0.138,0.415-0.346v-6.611c0-0.208-0.139-0.312-0.415-0.346v-0.173h3.495v0.173
		c-0.276,0-0.416,0.069-0.416,0.207c0.14,0.277,0.347,0.52,0.555,0.728l3.011,3.219l0,0v-3.773c0.035-0.173-0.103-0.311-0.276-0.346
		h-0.035v-0.173h2.666v0.173c-0.277,0.035-0.416,0.139-0.416,0.346v6.611c0,0.104,0,0.174,0.07,0.276
		c0.103,0.07,0.242,0.104,0.346,0.07V1211.109L1017.045,1211.109z"/>
	<path fill="#FFFFFF" d="M1027.221,1211.109h-2.423v-0.173c0.138,0,0.207-0.034,0.207-0.104c-0.034-0.139-0.103-0.312-0.173-0.45
		l-0.276-0.554h-3.392l-0.348,0.728c-0.033,0.068-0.068,0.173-0.068,0.275c0,0.07,0.068,0.104,0.208,0.104v0.173h-2.216v-0.173
		c0.174,0,0.313-0.104,0.346-0.277l0.347-0.761l1.904-4.257c0.103-0.174,0.173-0.382,0.242-0.589c0-0.104-0.069-0.139-0.173-0.139
		v-0.173h3.045v0.173c-0.138,0-0.172,0.035-0.172,0.139c0.034,0.173,0.104,0.347,0.207,0.484l1.904,3.98
		c0.138,0.276,0.276,0.554,0.414,0.899c0.139,0.347,0.313,0.52,0.451,0.52v0.173H1027.221L1027.221,1211.109z M1024.106,1208.756
		L1024.106,1208.756l-1.211-2.491l0,0l-1.246,2.491H1024.106L1024.106,1208.756z"/>
	<path fill="#FFFFFF" d="M1036.739,1210.383l-0.172,0.104c-0.104-0.104-0.174-0.173-0.208-0.173s-0.208,0.069-0.519,0.243
		c-0.416,0.173-0.832,0.346-1.281,0.449c-0.484,0.139-0.97,0.173-1.453,0.173c-1.316,0-2.354-0.276-3.115-0.865
		c-0.728-0.554-1.143-1.453-1.108-2.388c-0.069-0.97,0.381-1.903,1.212-2.458c0.899-0.588,1.938-0.899,3.012-0.865
		c0.588,0,1.211,0.104,1.799,0.242c0.658,0.173,1.004,0.242,1.073,0.242s0.173-0.034,0.208-0.104l0.173,0.069l-1.038,2.111
		l-0.208-0.104c0.034-0.069,0.069-0.139,0.069-0.208c0-0.138-0.242-0.312-0.692-0.45c-0.415-0.138-0.865-0.242-1.315-0.242
		c-0.588-0.035-1.176,0.139-1.695,0.485c-0.728,0.484-0.9,1.487-0.381,2.181c0.104,0.138,0.242,0.275,0.381,0.38
		c0.52,0.312,1.107,0.485,1.73,0.45c0.484,0,0.969-0.139,1.385-0.346c0.449-0.242,0.691-0.416,0.691-0.624v-0.207l0.139-0.104
		L1036.739,1210.383z"/>
	<path fill="#FFFFFF" d="M1040.996,1211.109h-2.734v-0.173c0.276,0,0.381-0.104,0.381-0.346v-5.296c0-0.208-0.139-0.346-0.381-0.346
		v-0.173h2.734v0.173c-0.276,0-0.381,0.138-0.381,0.346v5.296c0,0.241,0.139,0.346,0.381,0.346V1211.109z"/>
	<path fill="#FFFFFF" d="M1042.969,1207.926c-0.035-0.936,0.381-1.869,1.107-2.458c0.797-0.588,1.766-0.899,2.77-0.865
		c1.004-0.034,1.973,0.277,2.77,0.9c0.727,0.554,1.176,1.453,1.142,2.388c0.034,0.936-0.381,1.835-1.108,2.424
		c-0.795,0.622-1.764,0.934-2.768,0.865c-1.039,0.034-2.043-0.277-2.838-0.936
		C1043.316,1209.69,1042.934,1208.825,1042.969,1207.926z M1044.838,1207.891c-0.034,0.485,0.208,0.97,0.589,1.315
		c0.415,0.312,0.935,0.484,1.454,0.45c0.519,0.034,1.004-0.139,1.418-0.45c0.381-0.312,0.623-0.83,0.589-1.315
		c0-0.484-0.208-0.969-0.589-1.28s-0.865-0.485-1.384-0.485s-1.039,0.14-1.454,0.485
		C1045.046,1206.922,1044.838,1207.406,1044.838,1207.891L1044.838,1207.891z"/>
	<path fill="#FFFFFF" d="M1060.068,1211.109h-2.665v-0.173c0.277,0,0.416-0.069,0.416-0.173s-0.174-0.381-0.554-0.762l-2.907-3.114
		v3.737c0,0.208,0.138,0.313,0.346,0.347v0.173h-2.492v-0.173c0.276-0.034,0.381-0.139,0.381-0.347v-5.33
		c0-0.242-0.139-0.346-0.381-0.346v-0.173h3.461v0.173c-0.207,0.034-0.312,0.103-0.312,0.242c0,0.068,0.276,0.415,0.865,1.038
		l1.73,1.834l0,0v-2.769c0-0.242-0.138-0.346-0.38-0.346v-0.173h2.526v0.173c-0.277,0-0.382,0.103-0.382,0.346v5.296
		c0,0.241,0.139,0.346,0.382,0.346L1060.068,1211.109z"/>
	<path fill="#FFFFFF" d="M1068.963,1211.456h-0.174c-0.033-0.104-0.068-0.208-0.138-0.277c-0.104-0.069-0.242-0.069-0.347-0.069
		h-6.299v-0.173c0.277,0,0.381-0.104,0.381-0.346v-5.296c0-0.242-0.139-0.346-0.381-0.346v-0.173h6.403
		c0.277,0,0.38-0.104,0.38-0.347h0.174v2.008h-0.174c0-0.243-0.138-0.347-0.414-0.347h-4.05v1.073h2.562
		c0.104,0,0.207,0,0.311-0.069c0.07-0.035,0.07-0.139,0.07-0.312h0.172v1.973h-0.172c0-0.104-0.035-0.208-0.104-0.277
		c-0.104-0.033-0.207-0.068-0.312-0.068h-2.561v1.419h4.014c0.242,0.034,0.451-0.139,0.484-0.346h0.174V1211.456L1068.963,1211.456z
		"/>
	<path fill="#FFFFFF" d="M1077.72,1209.102c0,0.624-0.312,1.247-0.865,1.558c-0.657,0.416-1.454,0.589-2.249,0.555
		c-0.728,0-1.42-0.104-2.112-0.277c-0.728-0.173-1.106-0.276-1.142-0.276c-0.139,0.034-0.242,0.104-0.347,0.207l-0.139-0.034
		l0.623-1.973l0.173,0.068v0.173c0,0.174,0.313,0.347,0.969,0.52c0.623,0.173,1.316,0.242,1.975,0.242
		c0.83,0,1.244-0.207,1.244-0.622c0-0.173-0.103-0.277-0.241-0.347c-0.312-0.139-0.657-0.208-1.003-0.242l-1.005-0.139
		c-0.692-0.034-1.349-0.242-1.938-0.588c-0.38-0.242-0.588-0.658-0.588-1.108c0-0.657,0.346-1.245,0.9-1.558
		c0.691-0.449,1.523-0.691,2.354-0.623c0.588,0,1.211,0.07,1.799,0.174c0.692,0.139,1.074,0.173,1.108,0.173
		c0.103-0.034,0.207-0.104,0.276-0.173l0.174,0.068l-0.866,1.835l-0.207-0.104c0-0.035,0.034-0.069,0.034-0.104
		c0-0.104-0.242-0.241-0.727-0.381c-0.449-0.138-0.9-0.207-1.35-0.207c-1.107,0-1.662,0.207-1.662,0.623
		c0,0.139,0.104,0.242,0.277,0.347c0.313,0.103,0.657,0.173,0.969,0.207l0.865,0.104c0.97,0.104,1.662,0.312,2.043,0.623
		C1077.513,1208.133,1077.754,1208.583,1077.72,1209.102z"/>
	<path fill="#FFFFFF" d="M1084.469,1203.495h3.012v0.173c-0.277,0.035-0.416,0.139-0.416,0.346v3.773
		c-0.035,0.449,0.139,0.865,0.451,1.177c0.381,0.276,0.865,0.415,1.35,0.38c0.484,0.035,0.969-0.103,1.35-0.38
		c0.312-0.312,0.484-0.761,0.449-1.211v-3.739c0-0.207-0.138-0.311-0.414-0.346v-0.173h3.01v0.173
		c-0.276,0.035-0.414,0.139-0.414,0.346v3.808c0,2.25-1.316,3.393-3.912,3.393c-2.699,0-4.049-1.143-4.049-3.393v-3.808
		c0-0.207-0.139-0.311-0.416-0.346V1203.495L1084.469,1203.495z"/>
	<path fill="#FFFFFF" d="M1103.367,1211.109h-2.699v-0.173c0.277,0,0.415-0.069,0.415-0.173s-0.173-0.381-0.554-0.762l-2.907-3.114
		v3.737c0,0.208,0.104,0.313,0.347,0.347v0.173h-2.492v-0.173c0.276-0.034,0.381-0.139,0.381-0.347v-5.33
		c0-0.242-0.139-0.346-0.381-0.346v-0.173h3.461v0.173c-0.208,0.034-0.313,0.103-0.313,0.242c0,0.068,0.277,0.415,0.865,1.038
		l1.73,1.834l0,0v-2.769c0-0.242-0.138-0.346-0.379-0.346v-0.173h2.525v0.173c-0.276,0-0.381,0.103-0.381,0.346v5.296
		c0,0.241,0.139,0.346,0.381,0.346V1211.109z"/>
	<path fill="#FFFFFF" d="M1108.145,1211.109h-2.735v-0.173c0.277,0,0.382-0.104,0.382-0.346v-5.296c0-0.208-0.139-0.346-0.382-0.346
		v-0.173h2.735v0.173c-0.277,0-0.382,0.138-0.382,0.346v5.296c0,0.241,0.14,0.346,0.382,0.346V1211.109z"/>
	<path fill="#FFFFFF" d="M1117.905,1207.926c0.035,0.83-0.242,1.661-0.762,2.318c-0.519,0.555-1.279,0.831-2.284,0.831h-4.396
		v-0.173c0.104,0,0.207-0.035,0.312-0.104c0.069-0.104,0.104-0.242,0.069-0.347v-5.088c0-0.104,0-0.242-0.069-0.347
		c-0.069-0.068-0.207-0.138-0.312-0.138v-0.173h4.431c0.83-0.035,1.661,0.276,2.249,0.865
		C1117.698,1206.229,1117.974,1207.061,1117.905,1207.926z M1116.035,1207.926c0.035-0.52-0.139-1.073-0.484-1.453
		c-0.311-0.313-0.865-0.45-1.627-0.45h-1.142v3.771h1.073c0.83,0,1.385-0.138,1.695-0.45
		C1115.897,1208.929,1116.071,1208.445,1116.035,1207.926L1116.035,1207.926z"/>
	<path fill="#FFFFFF" d="M1127.528,1211.109h-2.424v-0.173c0.139,0,0.207-0.034,0.207-0.104c-0.033-0.139-0.103-0.312-0.172-0.45
		l-0.277-0.554h-3.391l-0.348,0.728c-0.034,0.068-0.068,0.173-0.068,0.275c0,0.07,0.068,0.104,0.207,0.104v0.173h-2.18v-0.173
		c0.173,0,0.311-0.104,0.346-0.277c0.068-0.173,0.207-0.415,0.346-0.761l1.904-4.257c0.104-0.174,0.172-0.382,0.242-0.589
		c0-0.104-0.07-0.139-0.174-0.139v-0.173h3.046v0.173c-0.138,0-0.173,0.035-0.173,0.139c0.035,0.173,0.104,0.347,0.208,0.484
		l1.903,3.98c0.139,0.276,0.277,0.554,0.415,0.899c0.14,0.347,0.312,0.52,0.45,0.52L1127.528,1211.109z M1124.412,1208.756
		L1124.412,1208.756l-1.211-2.491l0,0l-1.247,2.491H1124.412L1124.412,1208.756z"/>
	<path fill="#FFFFFF" d="M1135.938,1209.102c0,0.624-0.313,1.247-0.865,1.558c-0.657,0.416-1.453,0.589-2.25,0.555
		c-0.727,0-1.419-0.104-2.146-0.277c-0.726-0.173-1.106-0.276-1.142-0.276c-0.138,0.034-0.242,0.104-0.347,0.207l-0.138-0.034
		l0.623-1.973l0.173,0.068v0.173c0,0.174,0.312,0.347,0.969,0.52c0.623,0.173,1.316,0.242,1.974,0.242
		c0.83,0,1.246-0.207,1.246-0.622c0-0.173-0.104-0.277-0.243-0.347c-0.311-0.139-0.657-0.208-1.003-0.242l-1.005-0.139
		c-0.691-0.034-1.349-0.242-1.938-0.588c-0.381-0.242-0.588-0.658-0.588-1.108c0-0.657,0.346-1.245,0.899-1.558
		c0.692-0.449,1.523-0.657,2.354-0.623c0.589,0,1.212,0.07,1.8,0.174c0.693,0.139,1.073,0.173,1.107,0.173
		c0.035,0,0.174-0.069,0.277-0.173l0.174,0.068l-0.865,1.835l-0.209-0.104c0-0.035,0.035-0.069,0.035-0.104
		c0-0.104-0.242-0.241-0.727-0.381c-0.45-0.138-0.9-0.207-1.351-0.207c-1.107,0-1.661,0.207-1.661,0.623
		c0,0.139,0.104,0.242,0.277,0.347c0.312,0.103,0.623,0.173,0.969,0.207l0.865,0.104c0.969,0.104,1.627,0.312,2.043,0.623
		C1135.73,1208.133,1135.972,1208.583,1135.938,1209.102z"/>
	<g>
		<rect x="1070.001" y="1253.33" fill="#FFFFFF" width="3.253" height="10.349"/>
		<rect x="1098.938" y="1253.434" fill="#FFFFFF" width="3.253" height="10.35"/>
		<path fill="#FFFFFF" d="M994.236,1235.781v58.668h153.159v-58.668H994.236L994.236,1235.781z M1018.602,1258.071h-3.253v-4.742
			h-3.254v23.813h3.254v-4.707h3.253v3.393c0.035,1.246-0.519,2.457-1.418,3.287c-0.9,0.9-2.146,1.386-3.428,1.351
			c-0.83,0-1.695-0.208-2.422-0.623c-0.728-0.415-1.351-1.003-1.766-1.696c-0.484-0.692-0.728-1.487-0.728-2.318v-21.184
			c0-0.83,0.208-1.661,0.658-2.354c1.454-2.318,4.499-3.046,6.854-1.592c0.657,0.416,1.177,0.935,1.592,1.592
			c0.45,0.692,0.657,1.523,0.657,2.354V1258.071L1018.602,1258.071z M1047.122,1253.295h-6.507v10.349h4.881v3.116h-4.881v10.383
			h6.473v3.115h-6.473c-1.143,0-2.215-0.588-2.838-1.558c-0.277-0.484-0.416-1.003-0.416-1.558v-23.813
			c0-0.553,0.139-1.107,0.416-1.592s0.691-0.865,1.177-1.107c0.519-0.277,1.072-0.415,1.661-0.415h6.507V1253.295z
			 M1076.475,1253.33v10.313c0,0.555-0.139,1.073-0.416,1.559c-0.277,0.484-0.692,0.865-1.177,1.107
			c-0.519,0.277-1.073,0.45-1.661,0.415h-3.254v13.534h-3.219v-30.043h6.473c0.588,0,1.143,0.138,1.661,0.415
			c0.484,0.275,0.899,0.657,1.177,1.107C1076.336,1252.222,1076.508,1252.776,1076.475,1253.33z M1105.445,1280.362h-3.254v-13.464
			h-3.253v13.464h-3.22v-25.613c0-0.831,0.208-1.662,0.658-2.354c1.454-2.319,4.534-3.046,6.853-1.558
			c0.623,0.415,1.178,0.934,1.559,1.558c0.45,0.691,0.657,1.522,0.657,2.354V1280.362L1105.445,1280.362z M1135.384,1280.224h-9.726
			v-30.043h3.253v26.928h3.22v-6.229h3.253V1280.224L1135.384,1280.224z"/>
	</g>
</g>
</svg>
